{
  "accessors": [
    {
      "bufferView": 0,
      "componentType": 5126,
      "count": 188,
      "max": [
        82.74356079101562,
        30.789403915405273,
        56.852783203125
      ],
      "min": [
        -77.47615051269531,
        -103.06261444091797,
        -85.84828186035156
      ],
      "type": "VEC3"
    },
    {
      "bufferView": 1,
      "componentType": 5126,
      "count": 188,
      "type": "VEC3"
    },
    {
      "bufferView": 2,
      "componentType": 5126,
      "count": 188,
      "type": "VEC2"
    },
    {
      "bufferView": 3,
      "componentType": 5123,
      "count": 534,
      "type": "SCALAR"
    },
    {
      "bufferView": 4,
      "componentType": 5126,
      "count": 305,
      "max": [
        54.72813034057617,
        38.884220123291016,
        51.6851806640625
      ],
      "min": [
        -56.862545013427734,
        -18.531858444213867,
        -40.598018646240234
      ],
      "type": "VEC3"
    },
    {
      "bufferView": 5,
      "componentType": 5126,
      "count": 305,
      "type": "VEC3"
    },
    {
      "bufferView": 6,
      "componentType": 5126,
      "count": 305,
      "type": "VEC2"
    },
    {
      "bufferView": 7,
      "componentType": 5123,
      "count": 1572,
      "type": "SCALAR"
    }
  ],
  "asset": {
    "generator": "Khronos glTF Blender I/O v1.1.46",
    "version": "2.0"
  },
  "bufferViews": [
    {
      "buffer": 0,
      "byteLength": 2256,
      "byteOffset": 0
    },
    {
      "buffer": 0,
      "byteLength": 2256,
      "byteOffset": 2256
    },
    {
      "buffer": 0,
      "byteLength": 1504,
      "byteOffset": 4512
    },
    {
      "buffer": 0,
      "byteLength": 1068,
      "byteOffset": 6016
    },
    {
      "buffer": 0,
      "byteLength": 3660,
      "byteOffset": 7084
    },
    {
      "buffer": 0,
      "byteLength": 3660,
      "byteOffset": 10744
    },
    {
      "buffer": 0,
      "byteLength": 2440,
      "byteOffset": 14404
    },
    {
      "buffer": 0,
      "byteLength": 3144,
      "byteOffset": 16844
    },
    {
      "buffer": 0,
      "byteLength": 1,
      "byteOffset": 0
    }
  ],
  "buffers": [
    {
      "byteLength": 19992,
      "uri": "roses--face-mask.bin"
    }
  ],
  "images": [
    {
      "uri": "image0.jpg"
    }
  ],
  "materials": [
    {
      "doubleSided": true,
      "emissiveFactor": [
        0.0,
        0.0,
        0.0
      ],
      "name": "FABRIC_1_FRONT_4317",
      "pbrMetallicRoughness": {
        "baseColorFactor": [
          0.05056682974100113,
          0.35884538292884827,
          0.05952184647321701,
          1.0
        ],
        "metallicFactor": 0.0,
        "roughnessFactor": 5.821228981018066
      }
    },
    {
      "doubleSided": true,
      "emissiveFactor": [
        0.0,
        0.0,
        0.0
      ],
      "name": "Roses",
      "pbrMetallicRoughness": {
        "baseColorTexture": {
          "index": 0,
          "texCoord": 0
        },
        "metallicFactor": 0.0,
        "roughnessFactor": 0.5
      }
    }
  ],
  "meshes": [
    {
      "name": "mask",
      "primitives": [
        {
          "attributes": {
            "POSITION": 0,
            "NORMAL": 1,
            "TEXCOORD_0": 2
          },
          "indices": 3,
          "material": 0
        },
        {
          "attributes": {
            "POSITION": 4,
            "NORMAL": 5,
            "TEXCOORD_0": 6
          },
          "indices": 7,
          "material": 1
        }
      ]
    }
  ],
  "nodes": [
    {
      "name": "Light",
      "rotation": [
        0.16907575726509094,
        0.7558803558349609,
        -0.27217137813568115,
        0.570947527885437
      ],
      "translation": [
        4.076245307922363,
        5.903861999511719,
        -1.0054539442062378
      ]
    },
    {
      "name": "Camera",
      "rotation": [
        0.483536034822464,
        0.33687159419059753,
        -0.20870360732078552,
        0.7804827094078064
      ],
      "translation": [
        7.358891487121582,
        4.958309173583984,
        6.925790786743164
      ]
    },
    {
      "mesh": 0,
      "name": "mask",
      "rotation": [
        0.7071068286895752,
        0.0,
        0.0,
        0.7071067094802856
      ]
    }
  ],
  "scene": 0,
  "scenes": [
    {
      "name": "Scene",
      "nodes": [
        0,
        1,
        2
      ]
    }
  ],
  "textures": [
    {
      "source": 0
    }
  ]
}